<svg version="1.1" xmlns="http://www.w3.org/2000/svg" viewBox="0 0 545.875 187.478515625" width="1091.75" height="374.95703125">
  <!-- svg-source:excalidraw -->
  
  <defs>
    <style>
      @font-face {
        font-family: "Virgil";
        src: url("https://excalidraw.com/FG_Virgil.woff2");
      }
      @font-face {
        font-family: "Cascadia";
        src: url("https://excalidraw.com/Cascadia.woff2");
      }
    </style>
  </defs>
  <g transform="translate(10 68.583984375) rotate(0 262.9375 54.447265625)"><path d="M0.6115326680243016 -0.706581798940897 C133.07465305594963 -0.6585804765545763, 267.2981044070097 0.06895374604826798, 525.4082242049277 -0.5344039358198643 M0.12470870427787305 -0.18613580279052258 C196.2276051153778 1.098367584551219, 393.01536900389476 0.6482507952102461, 525.7249474924058 0.015405919030308725 M526.0348937604576 -1.7682889495044947 C523.8773897347143 21.510894484616806, 524.7265849170377 48.39984011051057, 525.3282678816468 109.58844622038306 M525.5906673474237 0.9785274909809232 C527.1603026060815 32.96535956538028, 525.9456206528897 65.55528478705747, 525.8554654819891 107.9438123451546 M525.7320050515234 108.78537333831193 C375.75769642399393 109.40874428057904, 225.78868946272414 109.60860668921704, 0.5835137881338597 109.28859825953843 M525.6765799801797 108.56175450272859 C393.57342117229706 108.66600581387199, 262.18069136526896 109.08962483385719, 0.08982764892280103 108.96497240252795 M-1.0740319397300482 108.29876854084434 C1.6192154112984645 67.07014710953555, -1.1203078206847203 27.66503298718672, -1.0194693114608526 1.1968664731830359 M-0.4918679790571332 107.93531418312342 C-0.06795718414094154 66.498954350434, 0.5646070327112466 21.766822918928668, 0.7072467906400561 -0.4901690138503909" stroke="#000000" stroke-width="1" fill="none"></path></g><g transform="translate(26.81640625 114.162109375) rotate(0 56.564453125 21.58984375)"><path d="M-0.09394036792218685 1.4045000281184912 C28.539287226755903 1.8930109134335722, 56.84696283473966 -0.8283394584040437, 111.83521027304226 0.0014962758868932724 M112.85730131529266 1.3581967446953058 C114.78319649385261 15.058524843621846, 111.99499545978355 27.24982927616655, 114.98616745136673 43.035138675942996 M111.9537457916885 45.009204348549225 C88.37481984179063 41.31275795791918, 63.52753184660466 41.315149117453636, 0.5460529420524836 41.70125331543384 M-0.7237911019474268 45.05940539576111 C-0.42438092695760116 34.42850432999911, -0.8031104491858421 23.052800789261514, -1.2551823053508997 -0.9050615932792425" stroke="#495057" stroke-width="1.5" fill="none" stroke-dasharray="12 8"></path></g><g transform="translate(42.828125 122.283203125) rotate(0 40 12.5)"><text x="0" y="18" font-family="Virgil, Segoe UI Emoji" font-size="20px" fill="#495057" text-anchor="start" style="white-space: pre;" direction="ltr">Delivery</text></g><g transform="translate(171.537109375 117.576171875) rotate(0 68.990234375 21.58984375)"><path d="M0.8322692718356848 -1.529979219660163 C37.52492956506577 -1.326045260557694, 79.00990820241206 -2.476842448839707, 136.55561782978478 1.0212302897125483 M137.46278662420812 -1.0338941011577845 C138.63835783834477 12.317962279331546, 137.04333343143483 23.432718058624587, 136.60514260269704 42.81123103760181 M136.10151865147057 44.37948138453064 C107.99229301539928 43.971363403575026, 79.03518796953796 40.50585178353032, -0.17914013005793095 43.90646947361527 M-1.2786564733833075 45.15306081436572 C0.9990116476393449 32.43492492046424, -0.790793109002043 23.069959421460215, -1.9882196690887213 -1.3516465816646814" stroke="#495057" stroke-width="1.5" fill="none" stroke-dasharray="12 8"></path></g><g transform="translate(187.548828125 126.181640625) rotate(0 52 12.5)"><text x="0" y="18" font-family="Virgil, Segoe UI Emoji" font-size="20px" fill="#495057" text-anchor="start" style="white-space: pre;" direction="ltr">Dev Tools</text></g><g transform="translate(341.615234375 115.923828125) rotate(0 87.037109375 21.830078125)"><path d="M0.7448786105960608 0.03541208244860172 C69.6963243290429 0.8877316650771898, 136.10830128223094 1.5528600749397081, 175.956607600674 0.7922108862549067 M175.05189771391449 1.541267117485404 C172.82108268291034 15.083219748678307, 175.93138817101993 31.50940966929992, 175.818055877462 44.42213596962391 M172.69580676220355 42.33509332872926 C110.48352862959761 42.55589566622972, 43.130646477826645 44.270811597454546, 0.7201788034290075 43.41117657162248 M-1.6213462259620428 43.656482836231575 C-1.4042728346067088 28.649153869295326, 0.5554417568964345 9.655395687881537, 1.6754611227661371 0.18385704420506954" stroke="#495057" stroke-width="1.5" fill="none" stroke-dasharray="12 8"></path></g><g transform="translate(355.87109375 126.556640625) rotate(0 72 12.5)"><text x="0" y="18" font-family="Virgil, Segoe UI Emoji" font-size="20px" fill="#495057" text-anchor="start" style="white-space: pre;" direction="ltr">Infrastructure</text></g><g transform="translate(16.73046875 11.037109375) rotate(0 123.087890625 17.853515625)"><path d="M-0.03480081696605293 -0.933491830841107 C53.27251136582474 0.013572614496242807, 106.06489871077048 -0.5939766629908615, 245.63539966195373 1.308518243897535 M0.5881079602010371 -0.2857734201129889 C63.33392249121487 0.5924486217814147, 125.60057846267135 -0.1232129960165631, 245.74271088399908 -0.33115879265026554 M246.40293658711016 1.0152776446193457 C246.6828937048084 13.35676604286091, 245.1806217545635 27.133334015687435, 244.3645655605942 34.51448794268072 M245.18335358332843 0.5241020964458585 C247.0509688792264 9.40061770046923, 245.3634304044282 16.697059947864183, 246.01200402807444 36.01675168145448 M244.8853164400672 35.52542389569834 C159.96113541618152 36.16443806446393, 74.42809490182569 35.20800255227536, 0.6810821620242559 34.69218862910726 M245.6480992463026 36.07306256899204 C153.6506839817498 36.95550615729553, 60.75411677229302 37.06638000607423, -0.5101116644744259 36.51245315498303 M0.8770415876060724 35.38150658272207 C-1.3880239730995163 28.66444550000342, -1.2219342595260605 16.947771609057234, -1.3789006974548101 -0.9155668411403894 M0.9534069104120135 35.61200374830514 C1.1186671701117665 23.489561674414652, -0.46149329870499056 11.649900247801998, -0.12823050189763308 0.1854428993538022" stroke="#495057" stroke-width="1" fill="none"></path></g><g transform="translate(35.171875 18.224609375) rotate(0 102.5 12.5)"><text x="0" y="18" font-family="Virgil, Segoe UI Emoji" font-size="20px" fill="#000000" text-anchor="start" style="white-space: pre;" direction="ltr">biz development team</text></g><g transform="translate(280.111328125 10) rotate(0 123.087890625 17.853515625)"><path d="M1.4753866050606481 -1.4514583799530199 C65.97957383738051 -3.240887848176759, 128.61808606656734 -0.9878663724757838, 244.8123375916284 -0.4684709054706957 M-0.2572024183982511 0.4838845573952735 C65.71371611664591 -1.8310301834587464, 130.54426655603433 -1.214971879848664, 245.70147265514717 0.7381592034553464 M247.52948857285082 0.8061813320964575 C245.65728910194395 13.747401994306347, 248.18897177206037 24.8997032076637, 245.48751265741885 36.293798765167594 M245.72985027264804 0.46579224336892366 C246.3285068203232 10.426373107920881, 245.22747614276622 21.02727856506317, 245.3395084841177 35.98434934485704 M246.19100134195043 36.27276841974408 C163.22700031514384 38.218050551452436, 78.75990199785015 38.615815544900606, -0.858652331206777 34.393697005164526 M245.82635321001925 35.196324248088956 C191.5331726473246 37.42994818189743, 137.35458090155836 37.344772687410774, 0.8070638577590312 35.56998412369608 M0.2128754947334528 35.42003752849996 C-1.4122053351710564 25.162769342304454, -0.9013699856112726 13.252201824443908, 1.1357013676315546 1.4407169427722692 M0.28228656481951475 35.96180165279657 C0.05363094607575475 22.917353311061376, -0.2926828583122915 11.778427315822771, 0.798673520796001 0.769522343762219" stroke="#495057" stroke-width="1" fill="none"></path></g><g transform="translate(298.552734375 17.1875) rotate(0 102.5 12.5)"><text x="0" y="18" font-family="Virgil, Segoe UI Emoji" font-size="20px" fill="#000000" text-anchor="start" style="white-space: pre;" direction="ltr">biz development team</text></g><g transform="translate(152.3203125 78.865234375) rotate(0 122 12.5)"><text x="0" y="18" font-family="Virgil, Segoe UI Emoji" font-size="20px" fill="#000000" text-anchor="start" style="white-space: pre;" direction="ltr">Internal Platform teams</text></g></svg>